<svg id="Logo_With_BG" data-name="Logo With BG" xmlns="http://www.w3.org/2000/svg" xmlns:xlink="http://www.w3.org/1999/xlink" width="131" height="131" viewBox="0 0 131 131">
  <defs>
    <linearGradient id="linear-gradient" x1="0.5" x2="0.5" y2="1" gradientUnits="objectBoundingBox">
      <stop offset="0" stop-color="#e2e3e7"/>
      <stop offset="1" stop-color="#717274"/>
    </linearGradient>
    <linearGradient id="linear-gradient-2" x1="0.5" y1="0.542" x2="0.852" y2="0.592" gradientUnits="objectBoundingBox">
      <stop offset="0" stop-color="#172234"/>
      <stop offset="1" stop-color="#a48111"/>
    </linearGradient>
  </defs>
  <g id="Ellipse_2" data-name="Ellipse 2" stroke="#92a4aa" stroke-width="2" fill="url(#linear-gradient)">
    <circle cx="65.5" cy="65.5" r="65.5" stroke="none"/>
    <circle cx="65.5" cy="65.5" r="64.5" fill="none"/>
  </g>
  <g id="Logo" transform="translate(33.75 28.317)">
    <path id="Subtraction_1" data-name="Subtraction 1" d="M30.273,74.365a29.147,29.147,0,0,1-12.6-2.637,26.291,26.291,0,0,1-9.589-7.91A37.128,37.128,0,0,1,2.02,51.758,53.024,53.024,0,0,1,0,36.67,47.994,47.994,0,0,1,2.063,22.26,36.849,36.849,0,0,1,8.252,10.473a27.1,27.1,0,0,1,9.632-7.855A28.622,28.622,0,0,1,30.273,0a39.617,39.617,0,0,1,9.915,1.174A28.33,28.33,0,0,1,48.382,4.7a38.026,38.026,0,0,0-9.424,7.983l-.241.282a20.394,20.394,0,0,0-8.443-1.634,14.245,14.245,0,0,0-12.744,6.787c-2.883,4.5-4.345,10.746-4.345,18.554,0,7.453,1.511,13.778,4.492,18.8s7.218,7.567,12.594,7.568a41.548,41.548,0,0,0,5.173,11.088A42.207,42.207,0,0,1,30.273,74.365Zm20.205-6.518h0c-.1-.122-.2-.245-.295-.368A29.126,29.126,0,0,1,44.8,55.635c3-4.566,4.517-10.947,4.517-18.966a47.287,47.287,0,0,0-1.047-10.492,31.046,31.046,0,0,1,2.416-3.69,23.587,23.587,0,0,1,7.548-6.625,37.905,37.905,0,0,1,3.2,9.437A56.915,56.915,0,0,1,62.5,36.67,52.06,52.06,0,0,1,59.5,55.308a28.9,28.9,0,0,1-9.016,12.539Z" transform="translate(0 0)" stroke="rgba(0,0,0,0)" stroke-miterlimit="10" stroke-width="1" fill="url(#linear-gradient-2)"/>
  </g>
</svg>
